<?xml version="1.0" encoding="utf-8"?>
<svg xmlns="http://www.w3.org/2000/svg" fill="none" height="100%" overflow="visible" preserveAspectRatio="none" style="display: block;" viewBox="0 0 409 76" width="100%">
<path d="M49.2292 49.1318L60.9829 70.6991H39.1744L29.2503 52.2678H19.8484V70.6991H0V5.36433H36.3017C51.3185 5.36433 60.8523 13.7203 60.8523 28.7473C60.8523 38.4169 56.4126 45.3437 49.2292 49.1318ZM19.8484 22.3445V35.2808H33.9512C38.1298 35.2808 40.7414 32.7981 40.7414 28.7473C40.7414 24.6965 38.1298 22.3445 33.9512 22.3445H19.8484ZM124.054 75.5284L64.6392 59.456L80.5701 0L110.277 8.03618L139.985 16.0724L124.054 75.5284ZM112.824 31.7527L96.2399 27.1793L91.8001 43.7743L108.384 48.3491L112.824 31.7527ZM208.019 52.2678C208.019 64.8121 200.054 70.6991 187.648 70.6991H148.735V5.36433H186.343C198.748 5.36433 206.713 11.7671 206.713 23.0047C206.713 30.0609 204.102 34.7664 199.14 38.0331C204.755 40.5076 208.019 45.4744 208.019 52.2678ZM168.061 21.0447V30.7142H180.982C184.508 30.7142 186.597 29.1462 186.597 25.7488C186.597 22.6127 184.508 21.0447 180.982 21.0447H168.061ZM168.061 55.0188H182.556C185.951 55.0188 187.916 53.1894 187.916 50.052C187.916 46.6559 185.958 45.0879 182.556 45.0879H168.061V55.0188ZM217.813 5.36433H237.658V51.3545H266.125V70.6991H217.81L217.813 5.36433ZM339.124 38.0331C339.124 44.7525 337.133 51.3211 333.402 56.9081C329.672 62.4951 324.369 66.8496 318.166 69.4211C311.962 71.9925 305.135 72.6653 298.549 71.3544C291.964 70.0435 285.914 66.8078 281.166 62.0564C276.418 57.3051 273.184 51.2514 271.874 44.6611C270.564 38.0708 271.237 31.2397 273.806 25.0318C276.376 18.8238 280.727 13.5178 286.311 9.78468C291.894 6.05156 298.458 4.05901 305.173 4.05901C309.633 4.05013 314.052 4.92261 318.174 6.62639C322.297 8.33017 326.043 10.8317 329.197 13.9876C332.352 17.1434 334.852 20.8914 336.556 25.0165C338.259 29.1417 339.132 33.5628 339.124 38.0262V38.0331ZM319.276 38.0331C319.276 29.9302 312.877 23.5274 305.173 23.5274C297.469 23.5274 291.069 29.9302 291.069 38.0331C291.069 46.136 297.469 52.5374 305.173 52.5374C312.877 52.5374 319.276 46.1264 319.276 38.0262V38.0331ZM386.917 36.9864L408.334 70.6991H384.692L372.945 51.4838L360.801 70.6991H336.774L359.103 37.769L338.602 5.36433H362.237L373.075 23.0047L383.522 5.36433H407.027L386.917 36.9864Z" fill="var(--fill-0, #F7F7F8)" id="Roblox Logo Wordmark Black"/>
</svg>