<?xml version="1.0" encoding="utf-8"?>
<svg xmlns="http://www.w3.org/2000/svg" fill="none" height="100%" overflow="visible" preserveAspectRatio="none" style="display: block;" viewBox="0 0 189 35" width="100%">
<path d="M22.7861 22.7678L28.2264 32.7621H18.1322L13.5387 24.221H9.18696V32.7621H0V2.48584H16.8025C23.7531 2.48584 28.1659 6.35802 28.1659 13.3216C28.1659 17.8024 26.1109 21.0124 22.7861 22.7678ZM9.18696 10.3545V16.3492H15.7145C17.6486 16.3492 18.8574 15.1987 18.8574 13.3216C18.8574 11.4444 17.6486 10.3545 15.7145 10.3545H9.18696ZM57.4191 35L29.9187 27.552L37.2924 0L51.0426 3.72398L64.7929 7.44796L57.4191 35ZM52.2212 14.7143L44.5453 12.5949L42.4903 20.2851L50.1663 22.4051L52.2212 14.7143ZM96.283 24.221C96.283 30.0341 92.5961 32.7621 86.8543 32.7621H68.843V2.48584H86.2499C91.9917 2.48584 95.6786 5.45291 95.6786 10.6604C95.6786 13.9303 94.4698 16.1108 92.1731 17.6246C94.772 18.7713 96.283 21.0729 96.283 24.221ZM77.7882 9.75214V14.233H83.7686C85.4005 14.233 86.3676 13.5064 86.3676 11.932C86.3676 10.4788 85.4005 9.75214 83.7686 9.75214H77.7882ZM77.7882 25.4958H84.4971C86.0686 25.4958 86.9783 24.6481 86.9783 23.1942C86.9783 21.6204 86.0717 20.8938 84.4971 20.8938H77.7882V25.4958ZM100.816 2.48584H110.002V23.7978H123.178V32.7621H100.815L100.816 2.48584ZM156.966 17.6246C156.966 20.7384 156.044 23.7823 154.318 26.3713C152.591 28.9603 150.137 30.9783 147.265 32.1699C144.394 33.3615 141.234 33.6732 138.186 33.0658C135.137 32.4583 132.337 30.9588 130.14 28.7571C127.942 26.5553 126.445 23.75 125.839 20.696C125.232 17.6421 125.544 14.4766 126.733 11.5998C127.922 8.723 129.937 6.26417 132.521 4.53424C135.105 2.8043 138.143 1.88095 141.251 1.88095C143.316 1.87684 145.361 2.28115 147.269 3.07068C149.177 3.86022 150.911 5.01944 152.371 6.48186C153.831 7.94428 154.989 9.6811 155.777 11.5927C156.566 13.5043 156.97 15.553 156.966 17.6214V17.6246ZM147.779 17.6246C147.779 13.8697 144.817 10.9026 141.251 10.9026C137.685 10.9026 134.723 13.8697 134.723 17.6246C134.723 21.3795 137.685 24.3459 141.251 24.3459C144.817 24.3459 147.779 21.375 147.779 17.6214V17.6246ZM179.087 17.1396L189 32.7621H178.057L172.62 23.8577L166.999 32.7621H155.878L166.213 17.5022L156.724 2.48584H167.664L172.68 10.6604L177.516 2.48584H188.395L179.087 17.1396Z" fill="var(--fill-0, #F7F7F8)" id="Roblox Logo Wordmark Black"/>
</svg>